<?xml version="1.0" encoding="utf-8"?>
<svg height="24" viewBox="0 -960 960 960" width="24" xmlns="http://www.w3.org/2000/svg">
  <path d="M 187.875 -237.75 C 228.25 -268.625 273.375 -292.969 323.25 -310.781 C 373.125 -328.594 425.375 -337.5 480 -337.5 C 534.625 -337.5 586.875 -328.594 636.75 -310.781 C 686.625 -292.969 731.75 -268.625 772.125 -237.75 C 799.833 -270.208 821.406 -307.021 836.844 -348.188 C 852.281 -389.354 860 -433.292 860 -480 C 860 -585.292 822.99 -674.948 748.969 -748.969 C 674.948 -822.99 585.292 -860 480 -860 C 374.708 -860 285.052 -822.99 211.031 -748.969 C 137.01 -674.948 100 -585.292 100 -480 C 100 -433.292 107.719 -389.354 123.156 -348.188 C 138.594 -307.021 160.167 -270.208 187.875 -237.75 Z M 480 -432.5 C 433.292 -432.5 393.906 -448.531 361.844 -480.594 C 329.781 -512.656 313.75 -552.042 313.75 -598.75 C 313.75 -645.458 329.781 -684.844 361.844 -716.906 C 393.906 -748.969 433.292 -765 480 -765 C 526.708 -765 566.094 -748.969 598.156 -716.906 C 630.219 -684.844 646.25 -645.458 646.25 -598.75 C 646.25 -552.042 630.219 -512.656 598.156 -480.594 C 566.094 -448.531 526.708 -432.5 480 -432.5 Z M 480 -5 C 414.292 -5 352.542 -17.469 294.75 -42.406 C 236.958 -67.344 186.688 -101.188 143.938 -143.938 C 101.188 -186.688 67.344 -236.958 42.406 -294.75 C 17.469 -352.542 5 -414.292 5 -480 C 5 -545.708 17.469 -607.458 42.406 -665.25 C 67.344 -723.042 101.188 -773.312 143.938 -816.062 C 186.688 -858.812 236.958 -892.656 294.75 -917.594 C 352.542 -942.531 414.292 -955 480 -955 C 545.708 -955 607.458 -942.531 665.25 -917.594 C 723.042 -892.656 773.312 -858.812 816.062 -816.062 C 858.812 -773.312 892.656 -723.042 917.594 -665.25 C 942.531 -607.458 955 -545.708 955 -480 C 955 -414.292 942.531 -352.542 917.594 -294.75 C 892.656 -236.958 858.812 -186.688 816.062 -143.938 C 773.312 -101.188 723.042 -67.344 665.25 -42.406 C 607.458 -17.469 545.708 -5 480 -5 Z M 480 -100 C 521.958 -100 561.542 -106.135 598.75 -118.406 C 635.958 -130.677 670 -148.292 700.875 -171.25 C 670 -194.208 635.958 -211.823 598.75 -224.094 C 561.542 -236.365 521.958 -242.5 480 -242.5 C 438.042 -242.5 398.458 -236.365 361.25 -224.094 C 324.042 -211.823 290 -194.208 259.125 -171.25 C 290 -148.292 324.042 -130.677 361.25 -118.406 C 398.458 -106.135 438.042 -100 480 -100 Z M 480 -527.5 C 500.583 -527.5 517.604 -534.229 531.062 -547.687 C 544.521 -561.146 551.25 -578.167 551.25 -598.75 C 551.25 -619.333 544.521 -636.354 531.062 -649.812 C 517.604 -663.271 500.583 -670 480 -670 C 459.417 -670 442.396 -663.271 428.938 -649.812 C 415.479 -636.354 408.75 -619.333 408.75 -598.75 C 408.75 -578.167 415.479 -561.146 428.938 -547.687 C 442.396 -534.229 459.417 -527.5 480 -527.5 Z M 480 -598.75 Z M 480 -171.25 Z" style="transform-box: fill-box; transform-origin: 50% 50%;"/>
</svg>